<mxfile host="app.diagrams.net" modified="2023-11-17T06:54:53.695Z" agent="Mozilla/5.0 (Macintosh; Intel Mac OS X 10_15_7) AppleWebKit/537.36 (KHTML, like Gecko) Chrome/119.0.0.0 Safari/537.36 Edg/119.0.0.0" version="22.1.1" etag="B2p-C671qyQvff8zLEiD" type="github">
  <diagram name="第 1 页" id="4hM9mdKm3444lnJSaF9B">
    <mxGraphModel>
      <root>
        <mxCell id="0" />
        <mxCell id="1" parent="0" />
      </root>
    </mxGraphModel>
  </diagram>
</mxfile>
